<svg xmlns="http://www.w3.org/2000/svg" xmlns:xlink="http://www.w3.org/1999/xlink" viewBox="0 0 79.688 85" fill="#fff" fill-rule="evenodd" stroke="#000" stroke-linecap="round" stroke-linejoin="round"><use xlink:href="#A" x="2.344" y="2.5"/><symbol id="A" overflow="visible"><g stroke="none"><path d="M37.5 0h0 0L0 13.28l5.72 49.24L37.5 80h0 0l31.78-17.48L75 13.28z" fill="#dd0031"/><path d="M37.5 0v8.88-.04 40.52h0V80h0l31.78-17.48L75 13.28 37.5 0z" fill="#c3002f"/><path d="M37.501 8.84l-23.443 52.2h0 8.741 0l4.713-11.68h19.898l4.713 11.68h0 8.741 0L37.501 8.84h0 0 0 0zm6.847 33.32H30.653l6.847-16.36 6.847 16.36z"/></g></symbol></svg>