<svg xmlns="http://www.w3.org/2000/svg" xmlns:xlink="http://www.w3.org/1999/xlink" viewBox="0 0 233.75 46.75" fill="#fff" fill-rule="evenodd" stroke="#000" stroke-linecap="round" stroke-linejoin="round"><use xlink:href="#A" x="6.875" y="1.375"/><symbol id="A" overflow="visible"><path d="M80.967 0c7.648-.028 15.491 1.784 21.435 5.867 3.046 2.036 5.506 4.59 7.596 7.31 3.76-5.019 9.252-9.283 16.024-11.338 8.252-2.558 17.581-2.382 25.819.126 7.196 2.169 13.488 5.95 19.194 10.108 4.464 3.254 8.595 6.814 13.193 9.947 2.422 1.623 5.026 3.144 8.005 3.985 3.96 1.116 8.643.063 11.474-2.456 2.622-2.358 2.46-6.433-.428-8.587-1.837-1.309-4.978-1.045-6.277.7-1.137 1.383-.5 3.109.39 4.449-2.365-1.427-4.735-3.415-4.726-6.009-.49-2.999 2.204-5.643 5.43-6.693 6.296-2.079 14.192-.287 18.166 4.291 3.822 4.272 4.126 9.888 3.46 14.977-.804 4.834-4.079 9.345-8.933 12.143-6.815 4.016-15.453 5.262-23.672 5.176-7.9-.177-15.72-1.651-23.039-4.087-12.241-4.064-23.696-9.679-36.337-12.926-4.193-1.344-8.652-2.071-13.135-2.295-3.569-.02-6.953-.157-10.323.031-4.112.326-8.2 1.022-12.05 2.268-12.855 3.301-24.482 9.059-36.955 13.13-10.532 3.384-22.202 4.956-33.381 3.077-6.254-1.045-12.479-3.329-16.7-7.396C1.583 32.34-.149 27.71.022 23.175c-.2-4.28.938-8.827 4.364-12.159 3.189-3.16 8.324-4.763 13.254-4.409 3.174.122 6.392 1.265 8.352 3.376 1.542 1.67 1.637 3.957.961 5.911-.823 1.757-2.522 3.128-4.369 4.181.942-1.313 1.513-3.046.4-4.417-1.371-1.827-4.745-2.012-6.53-.511-2.199 1.867-2.66 4.916-1.185 7.204 1.599 2.397 4.907 3.765 8.11 4.044 4.845.346 9.047-2.134 12.602-4.539 7.358-5.231 13.983-11.216 22.145-15.641C64.857 2.488 72.786-.031 80.967 0h0 0z" fill="#423426" stroke="none"/></symbol></svg>