<svg xmlns="http://www.w3.org/2000/svg" xmlns:xlink="http://www.w3.org/1999/xlink" viewBox="0 0 74.375 85" fill="#fff" fill-rule="evenodd" stroke="#000" stroke-linecap="round" stroke-linejoin="round"><use xlink:href="#A" x="2.188" y="2.5"/><symbol id="A" overflow="visible"><g stroke="none"><path d="M67.866 61.557L37.134 79.42a4.22 4.22 0 0 1-4.268 0L2.134 61.557C.811 60.784 0 59.367 0 57.864V22.136c0-1.546.811-2.92 2.134-3.693L32.866.58a4.22 4.22 0 0 1 4.268 0l30.732 17.864c1.323.773 2.134 2.19 2.134 3.693v35.727a4.49 4.49 0 0 1-2.134 3.693z" fill="#8d6748"/><path d="M38.912 24.599a.43.43 0 0 0-.43-.428h-4.043-4.043a.43.43 0 0 0-.43.428c0 1.457.215 6.47 2.366 8.912a.39.39 0 0 0 .301.129h3.613a.39.39 0 0 0 .301-.129c2.151-2.399 2.366-7.412 2.366-8.912zm-3.183 7.798h-2.538a.39.39 0 0 1-.301-.128c-1.462-1.714-1.634-5.141-1.677-6.341a.43.43 0 0 1 .43-.428h2.839 2.839a.43.43 0 0 1 .43.428c0 1.2-.215 4.584-1.678 6.341-.129.086-.215.128-.344.128zm-.473-9.083s1.548-.9.602-2.528c-.559-.857-.817-1.585-.602-1.885-.559.686-1.505 1.414-.473 2.956.344.386.516 1.2.473 1.457zm-1.721.128s1.032-.6.387-1.714c-.387-.557-.559-1.071-.387-1.242-.387.471-.989.943-.301 2.014.215.214.301.771.301.942zm3.527 4.97c-.172 1.157-.516 2.485-1.247 3.342-.086.086-.172.129-.258.129h-2.151c-.086 0-.215-.043-.258-.129-.516-.643-.86-1.499-1.075-2.399 0 0 2.495.343 3.914-.171 1.032-.386 1.075-.771 1.075-.771zm25.25 2.055H39.178c0 .172-.043.301-.043.472h23.177v-.472zm-54.381 0v.472h21.811c0-.172-.043-.3-.043-.472H7.931zm1.011 4.941h1.58l2.605 4.026 2.605-4.026h1.58v8.566h-1.494V37.85l-2.69 4.026h-.043l-2.647-3.983v6.124H8.942v-8.608zm16.098 8.695a4.95 4.95 0 0 1-1.793-.343 4.08 4.08 0 0 1-1.409-.942c-.384-.385-.683-.857-.897-1.413a4.54 4.54 0 0 1-.342-1.713v-.043c0-.6.128-1.156.342-1.713a4.3 4.3 0 0 1 .939-1.413c.384-.386.854-.728 1.409-.942.555-.257 1.153-.343 1.793-.343a4.95 4.95 0 0 1 1.793.343 4.08 4.08 0 0 1 1.409.942c.384.385.683.856.897 1.413a4.53 4.53 0 0 1 .342 1.713v.043c0 .6-.128 1.156-.342 1.713a4.3 4.3 0 0 1-.939 1.413 4.08 4.08 0 0 1-1.409.942c-.555.257-1.153.343-1.793.343zm0-1.371c.427 0 .811-.086 1.153-.257a3.44 3.44 0 0 0 .897-.642c.257-.256.427-.599.598-.942.128-.385.213-.771.213-1.156v-.043c0-.428-.085-.814-.213-1.199s-.342-.685-.598-.985c-.256-.257-.555-.471-.897-.642s-.726-.257-1.153-.257-.811.086-1.153.257a3.42 3.42 0 0 0-.897.642c-.256.257-.427.6-.598.942-.128.386-.214.771-.214 1.156v.043a3.7 3.7 0 0 0 .214 1.199c.129.385.342.685.598.985a3.42 3.42 0 0 0 .897.642c.342.171.769.257 1.153.257zm11.7 1.371a4.34 4.34 0 0 1-1.708-.343 4.34 4.34 0 0 1-1.366-.942c-.384-.385-.683-.857-.897-1.413s-.342-1.113-.342-1.713v-.043a4.54 4.54 0 0 1 .342-1.713c.214-.514.512-.985.897-1.413.384-.386.854-.728 1.409-.942a4.78 4.78 0 0 1 1.793-.343c.384 0 .726.043 1.067.086l.897.257c.256.129.512.257.726.428l.641.557-.982 1.114c-.342-.3-.683-.557-1.067-.771s-.811-.3-1.324-.3a2.36 2.36 0 0 0-1.11.257 3.42 3.42 0 0 0-.897.642c-.256.257-.427.6-.598.942-.128.386-.213.771-.213 1.156v.043c0 .428.085.814.213 1.199s.342.685.598.985c.256.257.555.514.897.642s.726.257 1.11.257c.512 0 .982-.086 1.324-.3a8.05 8.05 0 0 0 1.11-.814l.982.985c-.214.257-.427.428-.683.642s-.512.343-.769.471a3.16 3.16 0 0 1-.897.3c-.384.086-.768.086-1.153.086zm6.49-8.695h1.495v3.555h4.099v-3.555h1.495v8.566h-1.495v-3.598h-4.099v3.598H43.23v-8.566zm13.707-.043h1.366l3.758 8.609h-1.58l-.854-2.056h-4.014l-.897 2.056h-1.537l3.758-8.608zm2.135 5.225l-1.452-3.426-1.452 3.426h2.904zM7.935 46.668h54.421v.472H7.935zM35.084 6.801h0c.427 0 .811.129 1.195.344l26.549 15.416c.726.429 1.195 1.245 1.195 2.104v30.832c0 .859-.469 1.675-1.195 2.104L36.279 73.017c-.384.215-.768.343-1.195.343a2.29 2.29 0 0 1-1.195-.343L7.34 57.601c-.726-.429-1.195-1.245-1.195-2.104V24.665c0-.859.47-1.675 1.195-2.104L33.888 7.145c.384-.215.811-.344 1.195-.344m0-1.288a3.49 3.49 0 0 0-1.835.515L6.699 21.444c-1.152.644-1.835 1.889-1.835 3.178v30.832c0 1.331.683 2.533 1.835 3.178l26.549 15.416a3.49 3.49 0 0 0 1.835.515 3.49 3.49 0 0 0 1.835-.515l26.549-15.416c1.152-.644 1.835-1.889 1.835-3.178V24.622c0-1.331-.683-2.534-1.835-3.178L36.919 6.028a3.49 3.49 0 0 0-1.835-.515h0z"/></g></symbol></svg>