<svg xmlns="http://www.w3.org/2000/svg" xmlns:xlink="http://www.w3.org/1999/xlink" viewBox="0 0 170 85" fill="#fff" fill-rule="evenodd" stroke="#000" stroke-linecap="round" stroke-linejoin="round"><use xlink:href="#A" x="5" y="2.5"/><symbol id="A" overflow="visible"><path d="M137.773 45.989c-5.582.02-10.433.916-14.495 2.241-1.49-1.968-2.981-3.722-3.244-5.007-.292-1.5-.643-2.416-.292-4.209s1.929-4.345 1.9-4.54-.351-1.111-3.565-1.13-5.991.409-6.312.974-.935 1.851-1.344 3.176c-.555 1.948-6.429 8.904-9.79 12.548-1.081-1.422-2.016-2.669-2.221-3.663-.292-1.5-.643-2.416-.292-4.209s1.929-4.345 1.9-4.54-.351-1.111-3.565-1.13-5.991.409-6.312.974-.672 1.89-1.344 3.176-8.475 12.899-10.521 15.899c-1.052 1.539-1.958 2.767-2.601 3.605 0 0-.029.058-.117.156l-.877 1.111c-.438.546-.906 1.033-1.14 1.033-.175 0-.497-1.403.058-3.312 1.169-4.033 3.945-10.307 3.916-10.522 0-.117.526-1.208-1.812-1.773-2.279-.565-3.098.37-3.302.37s-.351.331-.351.331 2.542-7.053-4.851-7.053c-4.617 0-10.988 3.371-14.145 6.41l-10.755 3.916-5.173 1.89c-.117-.078-.234-.175-.351-.253-8.943-6.371-25.484-10.873-24.782-19.426.263-3.117 1.87-11.301 31.767-21.238 24.607-8.086 44.188-5.845 47.578-.877 4.851 7.092-10.492 20.264-35.917 22.174-9.702.721-14.788-1.773-16.073-2.708-1.344-.974-1.549-1.033-2.046-.838-.818.292-.292 1.169 0 1.676.76 1.325 3.887 3.663 9.177 4.813 4.676 1.013 16.044 1.578 29.809-1.968 15.401-3.975 27.442-15.023 23.906-24.278C96.654.395 73.274-2.703 51.151 2.538 38 5.656 23.738 10.566 13.48 16.957 1.294 24.556-.635 31.161.154 33.928c2.835 9.82 23.146 16.211 31.27 20.946l-1.11.409c-4.062 1.344-19.551 6.742-23.409 12.451-4.384 6.469.701 11.106 4.062 11.73 10.433 1.929 21.159-1.539 26.916-7.268s5.056-13.172 2.396-16.581a.44.44 0 0 0-.117-.117l3.185-1.247c2.075-.818 4.121-1.578 5.874-2.202-.994 1.812-1.724 3.975-2.075 7.092-.438 3.663 1.812 8.417 4.764 10.288 1.315.818 2.864.838 3.858.838 3.449 0 4.998-1.909 6.722-4.17 2.104-2.767 4.004-5.982 4.004-5.982s-2.367 8.69 4.062 8.69c2.338 0 4.705-2.026 5.757-3.059 0 .019.058-.039.175-.175l.38-.409v-.039c.935-1.091 3.039-3.566 6.166-7.677 4.033-5.3 7.92-11.925 7.92-11.925s.351 1.617 1.549 4.306c.701 1.578 2.163 3.312 3.332 4.988-.935.877-1.52 1.364-1.52 1.364l.029.02c-.76.663-1.578 1.383-2.484 2.085-3.185 2.533-6.985 5.436-7.511 6.274-.614.994-.468 1.715.701 2.299.847.429 2.367.487 3.916.429 2.864-.136 4.88-.604 5.874-.896 1.549-.37 3.361-.935 5.056-1.773 3.127-1.539 5.027-3.741 4.851-6.644-.088-1.598-.877-3.195-1.841-4.696.292-.273.555-.545.847-.818 4.939-4.813 8.767-10.093 8.767-10.093s.351 1.617 1.549 4.306c.585 1.364 1.783 2.845 2.835 4.287-4.647 2.513-7.511 5.436-8.534 7.346-1.841 3.546-.409 5.144 2.309 5.514 1.227.175 2.981-.214 4.267-.585 1.637-.351 3.565-.955 5.407-1.851 3.127-1.539 6.137-3.683 5.962-6.586-.088-1.325-.614-2.63-1.344-3.897 3.945-1.091 9.031-1.695 15.518-1.189 13.911 1.091 16.658 6.878 16.132 9.314s-3.448 3.761-4.413 4.17-1.286.546-1.198.838c.117.429.584.409 1.403.331 1.14-.136 7.306-1.968 7.569-6.449.438-5.728-7.745-11.983-22.211-11.925zM30.46 70.111c-4.618 3.351-11.047 4.618-13.823 3.546-2.981-1.15-1.812-6.099 3.858-9.645 3.448-2.163 7.891-4.17 10.842-5.397l2.864-1.15c.205-.078.321-.117.321-.117h0l.701-.292c2.075 5.066.088 9.528-4.764 13.055zm33.608-15.237c-1.607 2.611-4.968 9.294-7.014 8.924-1.753-.312-2.835-5.378-.351-10.385 1.257-2.514 3.916-5.514 5.465-6.683 2.513-1.87 5.29-2.494 5.962-1.734.847.994-3.069 8.242-4.062 9.879zm27.734 8.846c-.672.234-1.315.39-1.607.273-.204-.078.292-.39.292-.39s3.478-2.494 4.851-3.624l2.718-2.319v.253c0 2.981-4.325 4.988-6.254 5.806zm21.392-3.254c-.497-.234-.409-1.013 1.257-3.449.643-.955 2.163-2.553 4.764-4.092.292.624.497 1.227.468 1.793-.029 3.76-4.062 5.163-6.488 5.748z" fill="#cd6799" stroke="none"/></symbol></svg>